<svg width="48" height="94" viewBox="0 0 48 94" fill="none" xmlns="http://www.w3.org/2000/svg">
<g filter="url(#filter0_dddddd_10_359)">
<path d="M33.3769 81C30.841 81 28.3692 80.3875 25.9615 79.1626C23.5538 77.9376 21.4209 76.3191 19.5628 74.307C17.7047 72.2949 16.2107 69.9843 15.0807 67.3751C13.9508 64.7658 13.3854 62.088 13.3846 59.3417C13.3846 58.9583 13.5026 58.6389 13.7385 58.3833C13.9744 58.1278 14.2692 58 14.6231 58H19.4C19.6752 58 19.9209 58.0958 20.1372 58.2875C20.3534 58.4792 20.4812 58.7241 20.5205 59.0222L21.2872 63.4944C21.3265 63.7926 21.3214 64.0643 21.2718 64.3097C21.2223 64.555 21.1095 64.7731 20.9333 64.9639L18.1026 68.0944C18.9282 69.6278 19.9603 71.0653 21.1987 72.4069C22.4372 73.7486 23.8034 74.9093 25.2974 75.8889L28.0692 72.8861C28.2462 72.6944 28.4773 72.5509 28.7628 72.4555C29.0482 72.3601 29.3281 72.3333 29.6026 72.375L33.6718 73.2694C33.947 73.3333 34.1731 73.4773 34.35 73.7013C34.5269 73.9254 34.6154 74.186 34.6154 74.4833V79.6583C34.6154 80.0417 34.4974 80.3611 34.2615 80.6167C34.0256 80.8722 33.7308 81 33.3769 81Z" fill="#F8EDFF"/>
</g>
<defs>
<filter id="filter0_dddddd_10_359" x="-50.321" y="-5.70558" width="148.642" height="150.411" filterUnits="userSpaceOnUse" color-interpolation-filters="sRGB">
<feFlood flood-opacity="0" result="BackgroundImageFix"/>
<feColorMatrix in="SourceAlpha" type="matrix" values="0 0 0 0 0 0 0 0 0 0 0 0 0 0 0 0 0 0 127 0" result="hardAlpha"/>
<feOffset/>
<feGaussianBlur stdDeviation="0.7584"/>
<feColorMatrix type="matrix" values="0 0 0 0 0 0 0 0 0 1 0 0 0 0 0.882353 0 0 0 1 0"/>
<feBlend mode="normal" in2="BackgroundImageFix" result="effect1_dropShadow_10_359"/>
<feColorMatrix in="SourceAlpha" type="matrix" values="0 0 0 0 0 0 0 0 0 0 0 0 0 0 0 0 0 0 127 0" result="hardAlpha"/>
<feOffset/>
<feGaussianBlur stdDeviation="1.5168"/>
<feColorMatrix type="matrix" values="0 0 0 0 0 0 0 0 0 1 0 0 0 0 0.882353 0 0 0 1 0"/>
<feBlend mode="normal" in2="effect1_dropShadow_10_359" result="effect2_dropShadow_10_359"/>
<feColorMatrix in="SourceAlpha" type="matrix" values="0 0 0 0 0 0 0 0 0 0 0 0 0 0 0 0 0 0 127 0" result="hardAlpha"/>
<feOffset/>
<feGaussianBlur stdDeviation="5.3088"/>
<feColorMatrix type="matrix" values="0 0 0 0 0 0 0 0 0 1 0 0 0 0 0.882353 0 0 0 1 0"/>
<feBlend mode="normal" in2="effect2_dropShadow_10_359" result="effect3_dropShadow_10_359"/>
<feColorMatrix in="SourceAlpha" type="matrix" values="0 0 0 0 0 0 0 0 0 0 0 0 0 0 0 0 0 0 127 0" result="hardAlpha"/>
<feOffset/>
<feGaussianBlur stdDeviation="10.6176"/>
<feColorMatrix type="matrix" values="0 0 0 0 0 0 0 0 0 1 0 0 0 0 0.882353 0 0 0 1 0"/>
<feBlend mode="normal" in2="effect3_dropShadow_10_359" result="effect4_dropShadow_10_359"/>
<feColorMatrix in="SourceAlpha" type="matrix" values="0 0 0 0 0 0 0 0 0 0 0 0 0 0 0 0 0 0 127 0" result="hardAlpha"/>
<feOffset/>
<feGaussianBlur stdDeviation="18.2016"/>
<feColorMatrix type="matrix" values="0 0 0 0 0 0 0 0 0 1 0 0 0 0 0.882353 0 0 0 1 0"/>
<feBlend mode="normal" in2="effect4_dropShadow_10_359" result="effect5_dropShadow_10_359"/>
<feColorMatrix in="SourceAlpha" type="matrix" values="0 0 0 0 0 0 0 0 0 0 0 0 0 0 0 0 0 0 127 0" result="hardAlpha"/>
<feOffset/>
<feGaussianBlur stdDeviation="31.8528"/>
<feColorMatrix type="matrix" values="0 0 0 0 0 0 0 0 0 1 0 0 0 0 0.882353 0 0 0 1 0"/>
<feBlend mode="normal" in2="effect5_dropShadow_10_359" result="effect6_dropShadow_10_359"/>
<feBlend mode="normal" in="SourceGraphic" in2="effect6_dropShadow_10_359" result="shape"/>
</filter>
</defs>
</svg>
